<mxfile host="Electron" modified="2024-05-06T21:51:00.350Z" agent="Mozilla/5.0 (Windows NT 10.0; Win64; x64) AppleWebKit/537.36 (KHTML, like Gecko) draw.io/24.2.5 Chrome/120.0.6099.109 Electron/28.1.0 Safari/537.36" etag="FPy6TEW0gY4TvLB24Zrp" version="24.2.5" type="device">
  <diagram id="C5RBs43oDa-KdzZeNtuy" name="Page-1">
    <mxGraphModel dx="1037" dy="598" grid="1" gridSize="10" guides="1" tooltips="1" connect="1" arrows="1" fold="1" page="1" pageScale="1" pageWidth="1169" pageHeight="1654" math="0" shadow="0">
      <root>
        <mxCell id="WIyWlLk6GJQsqaUBKTNV-0" />
        <mxCell id="WIyWlLk6GJQsqaUBKTNV-1" parent="WIyWlLk6GJQsqaUBKTNV-0" />
        <mxCell id="OqwwQnzkJdffWeKOw85n-2" style="edgeStyle=orthogonalEdgeStyle;rounded=0;orthogonalLoop=1;jettySize=auto;html=1;entryX=0.5;entryY=0;entryDx=0;entryDy=0;" parent="WIyWlLk6GJQsqaUBKTNV-1" source="OqwwQnzkJdffWeKOw85n-0" target="OqwwQnzkJdffWeKOw85n-1" edge="1">
          <mxGeometry relative="1" as="geometry" />
        </mxCell>
        <mxCell id="OqwwQnzkJdffWeKOw85n-0" value="Start" style="ellipse;whiteSpace=wrap;html=1;" parent="WIyWlLk6GJQsqaUBKTNV-1" vertex="1">
          <mxGeometry x="236.95" y="30" width="96" height="50" as="geometry" />
        </mxCell>
        <mxCell id="OqwwQnzkJdffWeKOw85n-11" style="edgeStyle=orthogonalEdgeStyle;rounded=0;orthogonalLoop=1;jettySize=auto;html=1;entryX=0;entryY=0.5;entryDx=0;entryDy=0;" parent="WIyWlLk6GJQsqaUBKTNV-1" source="OqwwQnzkJdffWeKOw85n-1" target="OqwwQnzkJdffWeKOw85n-5" edge="1">
          <mxGeometry relative="1" as="geometry" />
        </mxCell>
        <mxCell id="OqwwQnzkJdffWeKOw85n-1" value="Drohne wird angefordert via HMI" style="rounded=1;whiteSpace=wrap;html=1;" parent="WIyWlLk6GJQsqaUBKTNV-1" vertex="1">
          <mxGeometry x="224.95" y="110" width="120" height="60" as="geometry" />
        </mxCell>
        <mxCell id="OqwwQnzkJdffWeKOw85n-8" style="edgeStyle=orthogonalEdgeStyle;rounded=0;orthogonalLoop=1;jettySize=auto;html=1;entryX=0.5;entryY=0;entryDx=0;entryDy=0;" parent="WIyWlLk6GJQsqaUBKTNV-1" source="OqwwQnzkJdffWeKOw85n-5" target="OqwwQnzkJdffWeKOw85n-14" edge="1">
          <mxGeometry relative="1" as="geometry">
            <mxPoint x="600" y="140" as="targetPoint" />
          </mxGeometry>
        </mxCell>
        <mxCell id="OqwwQnzkJdffWeKOw85n-5" value="Drohnensteuerung erhält Anfrage" style="rounded=1;whiteSpace=wrap;html=1;" parent="WIyWlLk6GJQsqaUBKTNV-1" vertex="1">
          <mxGeometry x="400" y="110" width="120" height="60" as="geometry" />
        </mxCell>
        <mxCell id="OqwwQnzkJdffWeKOw85n-17" style="edgeStyle=orthogonalEdgeStyle;rounded=1;orthogonalLoop=1;jettySize=auto;html=1;entryX=0.5;entryY=0;entryDx=0;entryDy=0;curved=0;" parent="WIyWlLk6GJQsqaUBKTNV-1" source="OqwwQnzkJdffWeKOw85n-14" target="OqwwQnzkJdffWeKOw85n-18" edge="1">
          <mxGeometry relative="1" as="geometry">
            <mxPoint x="850" y="140" as="targetPoint" />
            <Array as="points">
              <mxPoint x="630" y="280" />
            </Array>
          </mxGeometry>
        </mxCell>
        <mxCell id="OqwwQnzkJdffWeKOw85n-19" value="Nein" style="edgeLabel;html=1;align=center;verticalAlign=middle;resizable=0;points=[];" parent="OqwwQnzkJdffWeKOw85n-17" vertex="1" connectable="0">
          <mxGeometry x="-0.8601" y="2" relative="1" as="geometry">
            <mxPoint x="-6" y="2" as="offset" />
          </mxGeometry>
        </mxCell>
        <mxCell id="OqwwQnzkJdffWeKOw85n-21" style="edgeStyle=orthogonalEdgeStyle;rounded=1;orthogonalLoop=1;jettySize=auto;html=1;entryX=0.5;entryY=0;entryDx=0;entryDy=0;curved=0;exitX=0.5;exitY=1;exitDx=0;exitDy=0;" parent="WIyWlLk6GJQsqaUBKTNV-1" source="OqwwQnzkJdffWeKOw85n-14" target="OqwwQnzkJdffWeKOw85n-22" edge="1">
          <mxGeometry relative="1" as="geometry">
            <mxPoint x="630.0000000000002" y="210.0000000000001" as="targetPoint" />
            <Array as="points">
              <mxPoint x="460" y="400" />
              <mxPoint x="460" y="400" />
            </Array>
          </mxGeometry>
        </mxCell>
        <mxCell id="OqwwQnzkJdffWeKOw85n-23" value="Ja&amp;nbsp;" style="edgeLabel;html=1;align=center;verticalAlign=middle;resizable=0;points=[];" parent="OqwwQnzkJdffWeKOw85n-21" vertex="1" connectable="0">
          <mxGeometry x="-0.1246" y="1" relative="1" as="geometry">
            <mxPoint x="-1" y="-19" as="offset" />
          </mxGeometry>
        </mxCell>
        <mxCell id="OqwwQnzkJdffWeKOw85n-14" value="Drohne ist verfügbar?" style="rhombus;whiteSpace=wrap;html=1;" parent="WIyWlLk6GJQsqaUBKTNV-1" vertex="1">
          <mxGeometry x="390" y="240" width="140" height="80" as="geometry" />
        </mxCell>
        <mxCell id="zGgUAhLFfR9MmCjBV8hg-39" style="edgeStyle=orthogonalEdgeStyle;rounded=1;orthogonalLoop=1;jettySize=auto;html=1;entryX=0.5;entryY=0;entryDx=0;entryDy=0;curved=0;" edge="1" parent="WIyWlLk6GJQsqaUBKTNV-1" source="OqwwQnzkJdffWeKOw85n-18" target="zGgUAhLFfR9MmCjBV8hg-37">
          <mxGeometry relative="1" as="geometry">
            <Array as="points">
              <mxPoint x="630" y="1350" />
              <mxPoint x="455" y="1350" />
            </Array>
          </mxGeometry>
        </mxCell>
        <mxCell id="OqwwQnzkJdffWeKOw85n-18" value="Rückmeldung auf Display" style="rounded=1;whiteSpace=wrap;html=1;" parent="WIyWlLk6GJQsqaUBKTNV-1" vertex="1">
          <mxGeometry x="570" y="410" width="120" height="60" as="geometry" />
        </mxCell>
        <mxCell id="zGgUAhLFfR9MmCjBV8hg-1" value="" style="edgeStyle=orthogonalEdgeStyle;rounded=0;orthogonalLoop=1;jettySize=auto;html=1;" edge="1" parent="WIyWlLk6GJQsqaUBKTNV-1" source="OqwwQnzkJdffWeKOw85n-22" target="zGgUAhLFfR9MmCjBV8hg-0">
          <mxGeometry relative="1" as="geometry" />
        </mxCell>
        <mxCell id="OqwwQnzkJdffWeKOw85n-22" value="Bestätigung auf dem Display für freien Startbereich" style="rounded=1;whiteSpace=wrap;html=1;" parent="WIyWlLk6GJQsqaUBKTNV-1" vertex="1">
          <mxGeometry x="400" y="410" width="120" height="60" as="geometry" />
        </mxCell>
        <mxCell id="zGgUAhLFfR9MmCjBV8hg-3" style="edgeStyle=orthogonalEdgeStyle;rounded=0;orthogonalLoop=1;jettySize=auto;html=1;" edge="1" parent="WIyWlLk6GJQsqaUBKTNV-1" source="zGgUAhLFfR9MmCjBV8hg-0" target="zGgUAhLFfR9MmCjBV8hg-2">
          <mxGeometry relative="1" as="geometry" />
        </mxCell>
        <mxCell id="zGgUAhLFfR9MmCjBV8hg-0" value="Anforderung für Drohnenstart" style="rounded=1;whiteSpace=wrap;html=1;" vertex="1" parent="WIyWlLk6GJQsqaUBKTNV-1">
          <mxGeometry x="224.95" y="410" width="120" height="60" as="geometry" />
        </mxCell>
        <mxCell id="zGgUAhLFfR9MmCjBV8hg-5" value="" style="edgeStyle=orthogonalEdgeStyle;rounded=0;orthogonalLoop=1;jettySize=auto;html=1;" edge="1" parent="WIyWlLk6GJQsqaUBKTNV-1" source="zGgUAhLFfR9MmCjBV8hg-2" target="zGgUAhLFfR9MmCjBV8hg-4">
          <mxGeometry relative="1" as="geometry" />
        </mxCell>
        <mxCell id="zGgUAhLFfR9MmCjBV8hg-2" value="Drohne fliegt in sichere Höhe (2,2 m)" style="rounded=1;whiteSpace=wrap;html=1;" vertex="1" parent="WIyWlLk6GJQsqaUBKTNV-1">
          <mxGeometry x="224.95" y="530" width="120" height="60" as="geometry" />
        </mxCell>
        <mxCell id="zGgUAhLFfR9MmCjBV8hg-7" style="edgeStyle=orthogonalEdgeStyle;rounded=0;orthogonalLoop=1;jettySize=auto;html=1;entryX=0.5;entryY=0;entryDx=0;entryDy=0;" edge="1" parent="WIyWlLk6GJQsqaUBKTNV-1" source="zGgUAhLFfR9MmCjBV8hg-4" target="zGgUAhLFfR9MmCjBV8hg-6">
          <mxGeometry relative="1" as="geometry" />
        </mxCell>
        <mxCell id="zGgUAhLFfR9MmCjBV8hg-4" value="Drohne fliegt gerade aus und sucht den Spielbereich" style="rounded=1;whiteSpace=wrap;html=1;" vertex="1" parent="WIyWlLk6GJQsqaUBKTNV-1">
          <mxGeometry x="224.95" y="650" width="120" height="60" as="geometry" />
        </mxCell>
        <mxCell id="zGgUAhLFfR9MmCjBV8hg-11" value="" style="edgeStyle=orthogonalEdgeStyle;rounded=0;orthogonalLoop=1;jettySize=auto;html=1;" edge="1" parent="WIyWlLk6GJQsqaUBKTNV-1" source="zGgUAhLFfR9MmCjBV8hg-6">
          <mxGeometry relative="1" as="geometry">
            <mxPoint x="444.95" y="790" as="targetPoint" />
          </mxGeometry>
        </mxCell>
        <mxCell id="zGgUAhLFfR9MmCjBV8hg-13" value="Nein" style="edgeLabel;html=1;align=center;verticalAlign=middle;resizable=0;points=[];" vertex="1" connectable="0" parent="zGgUAhLFfR9MmCjBV8hg-11">
          <mxGeometry x="-0.5096" relative="1" as="geometry">
            <mxPoint x="-2" as="offset" />
          </mxGeometry>
        </mxCell>
        <mxCell id="zGgUAhLFfR9MmCjBV8hg-17" value="" style="edgeStyle=orthogonalEdgeStyle;rounded=0;orthogonalLoop=1;jettySize=auto;html=1;entryX=0.5;entryY=0;entryDx=0;entryDy=0;" edge="1" parent="WIyWlLk6GJQsqaUBKTNV-1" source="zGgUAhLFfR9MmCjBV8hg-6" target="zGgUAhLFfR9MmCjBV8hg-18">
          <mxGeometry relative="1" as="geometry">
            <mxPoint x="284.95" y="920" as="targetPoint" />
          </mxGeometry>
        </mxCell>
        <mxCell id="zGgUAhLFfR9MmCjBV8hg-6" value="Spielbereich gesichetet?" style="rhombus;whiteSpace=wrap;html=1;" vertex="1" parent="WIyWlLk6GJQsqaUBKTNV-1">
          <mxGeometry x="214.95" y="750" width="140" height="80" as="geometry" />
        </mxCell>
        <mxCell id="zGgUAhLFfR9MmCjBV8hg-15" value="" style="edgeStyle=orthogonalEdgeStyle;rounded=0;orthogonalLoop=1;jettySize=auto;html=1;" edge="1" parent="WIyWlLk6GJQsqaUBKTNV-1" source="zGgUAhLFfR9MmCjBV8hg-12" target="zGgUAhLFfR9MmCjBV8hg-14">
          <mxGeometry relative="1" as="geometry" />
        </mxCell>
        <mxCell id="zGgUAhLFfR9MmCjBV8hg-12" value="Rückmeldung mit Fehler Spielbereich nicht auffindbar" style="rounded=1;whiteSpace=wrap;html=1;" vertex="1" parent="WIyWlLk6GJQsqaUBKTNV-1">
          <mxGeometry x="394.95" y="760" width="120" height="60" as="geometry" />
        </mxCell>
        <mxCell id="zGgUAhLFfR9MmCjBV8hg-36" value="" style="edgeStyle=orthogonalEdgeStyle;rounded=0;orthogonalLoop=1;jettySize=auto;html=1;" edge="1" parent="WIyWlLk6GJQsqaUBKTNV-1" source="zGgUAhLFfR9MmCjBV8hg-14" target="zGgUAhLFfR9MmCjBV8hg-35">
          <mxGeometry relative="1" as="geometry" />
        </mxCell>
        <mxCell id="zGgUAhLFfR9MmCjBV8hg-14" value="Rückkehr zur Landezone" style="rounded=1;whiteSpace=wrap;html=1;" vertex="1" parent="WIyWlLk6GJQsqaUBKTNV-1">
          <mxGeometry x="394.95" y="980" width="120" height="60" as="geometry" />
        </mxCell>
        <mxCell id="zGgUAhLFfR9MmCjBV8hg-20" style="edgeStyle=orthogonalEdgeStyle;rounded=0;orthogonalLoop=1;jettySize=auto;html=1;" edge="1" parent="WIyWlLk6GJQsqaUBKTNV-1" source="zGgUAhLFfR9MmCjBV8hg-18" target="zGgUAhLFfR9MmCjBV8hg-19">
          <mxGeometry relative="1" as="geometry" />
        </mxCell>
        <mxCell id="zGgUAhLFfR9MmCjBV8hg-18" value="Beobachtungspostition über Spielfeld" style="rounded=1;whiteSpace=wrap;html=1;" vertex="1" parent="WIyWlLk6GJQsqaUBKTNV-1">
          <mxGeometry x="224.95" y="860" width="120" height="60" as="geometry" />
        </mxCell>
        <mxCell id="zGgUAhLFfR9MmCjBV8hg-22" style="edgeStyle=orthogonalEdgeStyle;rounded=0;orthogonalLoop=1;jettySize=auto;html=1;" edge="1" parent="WIyWlLk6GJQsqaUBKTNV-1" source="zGgUAhLFfR9MmCjBV8hg-19" target="zGgUAhLFfR9MmCjBV8hg-21">
          <mxGeometry relative="1" as="geometry" />
        </mxCell>
        <mxCell id="zGgUAhLFfR9MmCjBV8hg-23" value="Nein" style="edgeLabel;html=1;align=center;verticalAlign=middle;resizable=0;points=[];" vertex="1" connectable="0" parent="zGgUAhLFfR9MmCjBV8hg-22">
          <mxGeometry x="-0.2929" y="2" relative="1" as="geometry">
            <mxPoint as="offset" />
          </mxGeometry>
        </mxCell>
        <mxCell id="zGgUAhLFfR9MmCjBV8hg-24" style="edgeStyle=orthogonalEdgeStyle;rounded=0;orthogonalLoop=1;jettySize=auto;html=1;entryX=0;entryY=0.5;entryDx=0;entryDy=0;" edge="1" parent="WIyWlLk6GJQsqaUBKTNV-1" source="zGgUAhLFfR9MmCjBV8hg-19" target="zGgUAhLFfR9MmCjBV8hg-14">
          <mxGeometry relative="1" as="geometry" />
        </mxCell>
        <mxCell id="zGgUAhLFfR9MmCjBV8hg-25" value="Ja" style="edgeLabel;html=1;align=center;verticalAlign=middle;resizable=0;points=[];" vertex="1" connectable="0" parent="zGgUAhLFfR9MmCjBV8hg-24">
          <mxGeometry x="-0.4442" y="1" relative="1" as="geometry">
            <mxPoint x="9" y="1" as="offset" />
          </mxGeometry>
        </mxCell>
        <mxCell id="zGgUAhLFfR9MmCjBV8hg-19" value="Abbruchbedingung vorhanden?" style="rhombus;whiteSpace=wrap;html=1;" vertex="1" parent="WIyWlLk6GJQsqaUBKTNV-1">
          <mxGeometry x="214.95" y="970" width="140" height="80" as="geometry" />
        </mxCell>
        <mxCell id="zGgUAhLFfR9MmCjBV8hg-29" style="edgeStyle=orthogonalEdgeStyle;rounded=0;orthogonalLoop=1;jettySize=auto;html=1;entryX=0.5;entryY=0;entryDx=0;entryDy=0;" edge="1" parent="WIyWlLk6GJQsqaUBKTNV-1" source="zGgUAhLFfR9MmCjBV8hg-21" target="zGgUAhLFfR9MmCjBV8hg-28">
          <mxGeometry relative="1" as="geometry" />
        </mxCell>
        <mxCell id="zGgUAhLFfR9MmCjBV8hg-32" value="Ja" style="edgeLabel;html=1;align=center;verticalAlign=middle;resizable=0;points=[];" vertex="1" connectable="0" parent="zGgUAhLFfR9MmCjBV8hg-29">
          <mxGeometry x="-0.2786" y="-1" relative="1" as="geometry">
            <mxPoint as="offset" />
          </mxGeometry>
        </mxCell>
        <mxCell id="zGgUAhLFfR9MmCjBV8hg-33" style="edgeStyle=orthogonalEdgeStyle;rounded=1;orthogonalLoop=1;jettySize=auto;html=1;entryX=0;entryY=0.5;entryDx=0;entryDy=0;curved=0;" edge="1" parent="WIyWlLk6GJQsqaUBKTNV-1" source="zGgUAhLFfR9MmCjBV8hg-21" target="zGgUAhLFfR9MmCjBV8hg-18">
          <mxGeometry relative="1" as="geometry">
            <Array as="points">
              <mxPoint x="134.95" y="1145" />
              <mxPoint x="134.95" y="890" />
            </Array>
          </mxGeometry>
        </mxCell>
        <mxCell id="zGgUAhLFfR9MmCjBV8hg-34" value="Nein" style="edgeLabel;html=1;align=center;verticalAlign=middle;resizable=0;points=[];" vertex="1" connectable="0" parent="zGgUAhLFfR9MmCjBV8hg-33">
          <mxGeometry x="-0.8299" y="1" relative="1" as="geometry">
            <mxPoint x="10" y="-1" as="offset" />
          </mxGeometry>
        </mxCell>
        <mxCell id="zGgUAhLFfR9MmCjBV8hg-21" value="Ball erkannt und anschließend für&amp;nbsp;&lt;div&gt;&amp;gt;2 Sekunden&amp;nbsp;&lt;/div&gt;&lt;div&gt;nicht gesichetet?&lt;br&gt;Ausnahme: Tor&lt;/div&gt;" style="rhombus;whiteSpace=wrap;html=1;" vertex="1" parent="WIyWlLk6GJQsqaUBKTNV-1">
          <mxGeometry x="194.95" y="1090" width="180" height="110" as="geometry" />
        </mxCell>
        <mxCell id="zGgUAhLFfR9MmCjBV8hg-31" style="edgeStyle=orthogonalEdgeStyle;rounded=1;orthogonalLoop=1;jettySize=auto;html=1;entryX=0;entryY=0.5;entryDx=0;entryDy=0;curved=0;" edge="1" parent="WIyWlLk6GJQsqaUBKTNV-1" source="zGgUAhLFfR9MmCjBV8hg-28" target="zGgUAhLFfR9MmCjBV8hg-18">
          <mxGeometry relative="1" as="geometry">
            <mxPoint x="104.97857142857147" y="920" as="targetPoint" />
            <Array as="points">
              <mxPoint x="134.95" y="1270" />
              <mxPoint x="134.95" y="890" />
            </Array>
          </mxGeometry>
        </mxCell>
        <mxCell id="zGgUAhLFfR9MmCjBV8hg-28" value="Meldung auf Display: Ball verloren" style="rounded=1;whiteSpace=wrap;html=1;" vertex="1" parent="WIyWlLk6GJQsqaUBKTNV-1">
          <mxGeometry x="224.95" y="1240" width="120" height="60" as="geometry" />
        </mxCell>
        <mxCell id="zGgUAhLFfR9MmCjBV8hg-38" style="edgeStyle=orthogonalEdgeStyle;rounded=0;orthogonalLoop=1;jettySize=auto;html=1;entryX=0.5;entryY=0;entryDx=0;entryDy=0;" edge="1" parent="WIyWlLk6GJQsqaUBKTNV-1" source="zGgUAhLFfR9MmCjBV8hg-35" target="zGgUAhLFfR9MmCjBV8hg-37">
          <mxGeometry relative="1" as="geometry" />
        </mxCell>
        <mxCell id="zGgUAhLFfR9MmCjBV8hg-35" value="Landung einleiten" style="whiteSpace=wrap;html=1;rounded=1;" vertex="1" parent="WIyWlLk6GJQsqaUBKTNV-1">
          <mxGeometry x="394.95" y="1240" width="120" height="60" as="geometry" />
        </mxCell>
        <mxCell id="zGgUAhLFfR9MmCjBV8hg-37" value="Ende" style="ellipse;whiteSpace=wrap;html=1;" vertex="1" parent="WIyWlLk6GJQsqaUBKTNV-1">
          <mxGeometry x="394.95" y="1420" width="120" height="80" as="geometry" />
        </mxCell>
      </root>
    </mxGraphModel>
  </diagram>
</mxfile>
